<svg width="272" height="166" viewBox="0 0 272 166" version="1.1" xmlns="http://www.w3.org/2000/svg" xmlns:xlink="http://www.w3.org/1999/xlink" xmlns:figma="http://www.figma.com/figma/ns">
<title>Smoove</title>
<desc>Created using Figma</desc>
<g id="Canvas" transform="translate(1701 1416)" figma:type="canvas">
<g id="Group" style="mix-blend-mode:normal;" figma:type="frame">
<g id="Group" style="mix-blend-mode:normal;" figma:type="frame">
<g id="Vector" style="mix-blend-mode:normal;" figma:type="vector">
<use xlink:href="#path0_fill" transform="translate(-1700 -1415)" fill="#F7FBF3" style="mix-blend-mode:normal;"/>
<use xlink:href="#path1_stroke" transform="translate(-1700 -1415)" style="mix-blend-mode:normal;"/>
</g>
<g id="Group" style="mix-blend-mode:normal;" figma:type="frame">
<g id="Ellipse" style="mix-blend-mode:normal;" figma:type="ellipse">
<use xlink:href="#path2_fill" transform="translate(-1493.5 -1308.5)" fill="#6A675C" style="mix-blend-mode:normal;"/>
<mask id="mask0_outline_ins">
<use xlink:href="#path2_fill" fill="white" transform="translate(-1493.5 -1308.5)"/>
</mask>
<g mask="url(#mask0_outline_ins)">
<use xlink:href="#path3_stroke_2x" transform="translate(-1493.5 -1308.5)" style="mix-blend-mode:normal;"/>
</g>
</g>
<g id="Ellipse" style="mix-blend-mode:normal;" figma:type="ellipse">
<use xlink:href="#path4_fill" transform="translate(-1477 -1292)" fill="#BBB9AA" style="mix-blend-mode:normal;"/>
<mask id="mask1_outline_ins">
<use xlink:href="#path4_fill" fill="white" transform="translate(-1477 -1292)"/>
</mask>
<g mask="url(#mask1_outline_ins)">
<use xlink:href="#path5_stroke_2x" transform="translate(-1477 -1292)" style="mix-blend-mode:normal;"/>
</g>
</g>
</g>
<g id="Group" style="mix-blend-mode:normal;" figma:type="frame">
<g id="Ellipse" style="mix-blend-mode:normal;" figma:type="ellipse">
<use xlink:href="#path2_fill" transform="translate(-1691 -1308)" fill="#5B584F" style="mix-blend-mode:normal;"/>
<mask id="mask2_outline_ins">
<use xlink:href="#path2_fill" fill="white" transform="translate(-1691 -1308)"/>
</mask>
<g mask="url(#mask2_outline_ins)">
<use xlink:href="#path3_stroke_2x" transform="translate(-1691 -1308)" style="mix-blend-mode:normal;"/>
</g>
</g>
<g id="Ellipse" style="mix-blend-mode:normal;" figma:type="ellipse">
<use xlink:href="#path4_fill" transform="translate(-1675 -1292)" fill="#BBB9AA" style="mix-blend-mode:normal;"/>
<mask id="mask3_outline_ins">
<use xlink:href="#path4_fill" fill="white" transform="translate(-1675 -1292)"/>
</mask>
<g mask="url(#mask3_outline_ins)">
<use xlink:href="#path5_stroke_2x" transform="translate(-1675 -1292)" style="mix-blend-mode:normal;"/>
</g>
</g>
</g>
</g>
<g id="Vector 3" style="mix-blend-mode:normal;" figma:type="vector">
<use xlink:href="#path6_fill" transform="translate(-1677 -1399)" fill="#5B584F" fill-opacity="0.2" style="mix-blend-mode:normal;"/>
<use xlink:href="#path7_stroke" transform="translate(-1677 -1399)" style="mix-blend-mode:normal;"/>
</g>
<g id="Vector 2" style="mix-blend-mode:normal;" figma:type="vector">
<use xlink:href="#path8_fill" transform="translate(-1598 -1399)" fill="#6A675C" fill-opacity="0.2" style="mix-blend-mode:normal;"/>
<use xlink:href="#path9_stroke" transform="translate(-1598 -1399)" style="mix-blend-mode:normal;"/>
</g>
<g id="Group" style="mix-blend-mode:normal;" figma:type="frame">
<g id="moove" style="mix-blend-mode:normal;" figma:type="text">
<use xlink:href="#path10_fill" transform="matrix(0.982269 0.187475 -0.187475 0.982269 -1567.88 -1339)" fill="#0F73EB" style="mix-blend-mode:normal;"/>
</g>
<g id="s" style="mix-blend-mode:normal;" figma:type="text">
<use xlink:href="#path11_fill" transform="matrix(0.984752 0.173966 -0.173966 0.984752 -1579.75 -1341.68)" fill="#A0BDFD" style="mix-blend-mode:normal;"/>
</g>
</g>
<g id="Vector 4" style="mix-blend-mode:normal;" figma:type="vector">
<use xlink:href="#path12_stroke" transform="translate(-1681.5 -1353)" fill="#FE8716" style="mix-blend-mode:normal;"/>
</g>
<g id="Rectangle" style="mix-blend-mode:normal;" figma:type="rounded-rectangle">
<use xlink:href="#path13_fill" transform="translate(-1618 -1287)" fill="#3B9DFD" style="mix-blend-mode:normal;"/>
</g>
<g id="Ellipse 2" style="mix-blend-mode:normal;" figma:type="ellipse">
<use xlink:href="#path14_fill" transform="translate(-1600.5 -1294.5)" fill="#FE8717" style="mix-blend-mode:normal;"/>
</g>
<g id="Rectangle" style="mix-blend-mode:normal;" figma:type="rounded-rectangle">
<use xlink:href="#path15_fill" transform="translate(-1689 -1361)" fill="#3B9DFD" style="mix-blend-mode:normal;"/>
</g>
<g id="Ellipse 2" style="mix-blend-mode:normal;" figma:type="ellipse">
<use xlink:href="#path14_fill" transform="translate(-1686.5 -1359)" fill="#FE8717" style="mix-blend-mode:normal;"/>
</g>
</g>
</g>
<defs>
<path id="path0_fill" d="M 80 0C 61.2379 0.900442 36 -0.5 32 3C 28 6.5 23.3856 17.0235 17 28.5C 10.6144 39.9765 10 53.5 10 53.5L 8 77.5L 6 104.5L 0 114.5L 4 117C 18.2027 100.902 28.1393 98.1006 49 103C 70.3777 111.192 74.556 122.191 74.549 148L 197 148C 197.011 120.089 203.469 110.249 228.642 101.081C 247.408 98.6868 255.802 103.44 269 117L 270.5 115.282L 270.5 111L 262 101.081L 262 93L 260 85L 253 75L 199.5 31L 171 12.5L 148.5 3L 126 0L 80 0Z"/>
<path id="path1_stroke" d="M 80 0L 80 -0.5L 79.988 -0.5L 79.976 -0.499425L 80 0ZM 126 0L 126.066 -0.495614L 126.033 -0.5L 126 -0.5L 126 0ZM 148.5 3L 148.694 2.53938L 148.633 2.51326L 148.566 2.50439L 148.5 3ZM 171 12.5L 171.272 12.0806L 171.235 12.0566L 171.194 12.0394L 171 12.5ZM 199.5 31L 199.818 30.6138L 199.796 30.5959L 199.772 30.5806L 199.5 31ZM 253 75L 253.41 74.7133L 253.37 74.6573L 253.318 74.6138L 253 75ZM 260 85L 260.485 84.8787L 260.463 84.789L 260.41 84.7133L 260 85ZM 262 93L 262.5 93L 262.5 92.9384L 262.485 92.8787L 262 93ZM 262 101.081L 261.5 101.081L 261.5 101.266L 261.62 101.406L 262 101.081ZM 270.5 111L 271 111L 271 110.815L 270.88 110.675L 270.5 111ZM 270.5 115.282L 270.877 115.61L 271 115.469L 271 115.282L 270.5 115.282ZM 269 117L 268.642 117.349L 269.02 117.737L 269.377 117.329L 269 117ZM 228.642 101.081L 228.579 100.585L 228.524 100.592L 228.471 100.611L 228.642 101.081ZM 197 148L 197 148.5L 197.5 148.5L 197.5 148L 197 148ZM 74.549 148L 74.049 148L 74.0488 148.5L 74.549 148.5L 74.549 148ZM 49 103L 49.1789 102.533L 49.1473 102.521L 49.1143 102.513L 49 103ZM 4 117L 3.735 117.424L 4.09448 117.649L 4.37494 117.331L 4 117ZM 0 114.5L -0.428746 114.243L -0.68136 114.664L -0.264999 114.924L 0 114.5ZM 6 104.5L 6.42875 104.757L 6.48986 104.655L 6.49863 104.537L 6 104.5ZM 8 77.5L 7.50171 77.4585L 7.50137 77.4631L 8 77.5ZM 10 53.5L 10.4983 53.5415L 10.4991 53.5321L 10.4995 53.5227L 10 53.5ZM 32.3293 3.37629C 32.7406 3.01639 33.4807 2.6793 34.5713 2.38598C 35.6579 2.09314 37.0091 1.86375 38.6069 1.67796C 41.8107 1.30475 45.9033 1.12487 50.4751 1.02505C 59.6216 0.825214 70.6281 0.950137 80.024 0.499425L 79.976 -0.499425C 70.6098 -0.0496955 59.6163 -0.174772 50.4533 0.0252848C 45.8704 0.125409 41.7309 0.307943 38.4913 0.684665C 36.8674 0.873839 35.444 1.11629 34.3115 1.4203C 33.183 1.72383 32.2594 2.10861 31.6707 2.62371L 32.3293 3.37629ZM 80 0.5L 126 0.5L 126 -0.5L 80 -0.5L 80 0.5ZM 125.934 0.495614L 148.434 3.49561L 148.566 2.50439L 126.066 -0.495614L 125.934 0.495614ZM 148.306 3.46062L 170.806 12.9606L 171.194 12.0394L 148.694 2.53938L 148.306 3.46062ZM 170.728 12.9194L 199.228 31.4194L 199.772 30.5806L 171.272 12.0806L 170.728 12.9194ZM 199.182 31.3862L 252.682 75.3862L 253.318 74.6138L 199.818 30.6138L 199.182 31.3862ZM 252.59 75.2867L 259.59 85.2867L 260.41 84.7133L 253.41 74.7133L 252.59 75.2867ZM 259.515 85.1213L 261.515 93.1213L 262.485 92.8787L 260.485 84.8787L 259.515 85.1213ZM 261.5 93L 261.5 101.081L 262.5 101.081L 262.5 93L 261.5 93ZM 261.62 101.406L 270.12 111.325L 270.88 110.675L 262.38 100.755L 261.62 101.406ZM 270 111L 270 115.282L 271 115.282L 271 111L 270 111ZM 270.123 114.953L 268.623 116.671L 269.377 117.329L 270.877 115.61L 270.123 114.953ZM 269.358 116.651C 262.742 109.855 257.265 105.216 251.104 102.597C 244.901 99.9668 238.013 99.3813 228.579 100.585L 228.706 101.577C 238.037 100.386 244.73 100.981 250.714 103.518C 256.741 106.068 262.06 110.586 268.642 117.349L 269.358 116.651ZM 228.471 100.611C 215.858 105.205 207.824 110.003 202.97 117.233C 198.121 124.458 196.506 134.024 196.5 148L 197.5 148C 197.505 134.065 199.125 124.756 203.801 117.791C 208.472 110.831 216.254 106.125 228.814 101.551L 228.471 100.611ZM 197 147.5L 74.549 147.5L 74.549 148.5L 197 148.5L 197 147.5ZM 75.049 148C 75.0525 135.09 74.0141 125.778 70.2354 118.659C 66.4407 111.511 59.9267 106.652 49.1789 102.533L 48.8211 103.467C 59.4509 107.54 65.715 112.277 69.3521 119.128C 73.0052 126.01 74.0525 135.101 74.049 148L 75.049 148ZM 49.1143 102.513C 38.656 100.057 30.8517 99.5086 23.857 101.648C 16.8596 103.788 10.7499 108.594 3.62506 116.669L 4.37494 117.331C 11.4528 109.308 17.4128 104.664 24.1495 102.604C 30.889 100.543 38.4834 101.044 48.8857 103.487L 49.1143 102.513ZM 4.265 116.576L 0.264999 114.076L -0.264999 114.924L 3.735 117.424L 4.265 116.576ZM 0.428746 114.757L 6.42875 104.757L 5.57125 104.243L -0.428746 114.243L 0.428746 114.757ZM 6.49863 104.537L 8.49863 77.5369L 7.50137 77.4631L 5.50137 104.463L 6.49863 104.537ZM 8.49827 77.5415L 10.4983 53.5415L 9.50173 53.4585L 7.50173 77.4585L 8.49827 77.5415ZM 10 53.5C 10.4995 53.5227 10.4995 53.5227 10.4995 53.5227C 10.4995 53.5227 10.4995 53.5226 10.4995 53.5225C 10.4995 53.5222 10.4995 53.5218 10.4996 53.5211C 10.4996 53.5196 10.4997 53.5175 10.4999 53.5146C 10.5002 53.5083 10.5006 53.4994 10.5013 53.487C 10.5026 53.4616 10.5046 53.4247 10.5076 53.375C 10.5136 53.2744 10.523 53.1273 10.5375 52.9337C 10.5666 52.5442 10.6147 51.9795 10.6928 51.2617C 10.8495 49.8209 11.1227 47.7933 11.5959 45.4006C 12.5436 40.6042 14.2696 34.4285 17.4369 28.7431L 16.5631 28.2569C 13.3448 34.048 11.5708 40.3723 10.6149 45.2067C 10.1363 47.6295 9.85682 49.7 9.69871 51.1536C 9.61943 51.8829 9.56974 52.4644 9.54026 52.8593C 9.52544 53.0579 9.51547 53.2126 9.50934 53.3156C 9.50624 53.3678 9.50403 53.4082 9.50264 53.4347C 9.50193 53.4483 9.5014 53.4589 9.50107 53.4658C 9.50089 53.4693 9.50075 53.4722 9.50067 53.474C 9.50062 53.475 9.50059 53.4758 9.50056 53.4763C 9.50055 53.4765 9.50054 53.4768 9.50053 53.4769C 9.50052 53.4771 9.50052 53.4773 10 53.5ZM 17.4369 28.7431C 20.635 22.9952 23.386 17.4931 25.8337 12.9979C 28.2946 8.47838 30.4084 5.05707 32.3293 3.37629L 31.6707 2.62371C 29.5916 4.44293 27.3982 8.03336 24.9555 12.5197C 22.4996 17.0304 19.7506 22.5283 16.5631 28.2569L 17.4369 28.7431Z"/>
<path id="path2_fill" d="M 58 29C 58 45.0163 45.0163 58 29 58C 12.9837 58 0 45.0163 0 29C 0 12.9837 12.9837 0 29 0C 45.0163 0 58 12.9837 58 29Z"/>
<path id="path3_stroke_2x" d="M 57 29C 57 44.464 44.464 57 29 57L 29 59C 45.5685 59 59 45.5685 59 29L 57 29ZM 29 57C 13.536 57 1 44.464 1 29L -1 29C -1 45.5685 12.4315 59 29 59L 29 57ZM 1 29C 1 13.536 13.536 1 29 1L 29 -1C 12.4315 -1 -1 12.4315 -1 29L 1 29ZM 29 1C 44.464 1 57 13.536 57 29L 59 29C 59 12.4315 45.5685 -1 29 -1L 29 1Z"/>
<path id="path4_fill" d="M 25 12.5C 25 19.4036 19.4036 25 12.5 25C 5.59644 25 0 19.4036 0 12.5C 0 5.59644 5.59644 0 12.5 0C 19.4036 0 25 5.59644 25 12.5Z"/>
<path id="path5_stroke_2x" d="M 24 12.5C 24 18.8513 18.8513 24 12.5 24L 12.5 26C 19.9558 26 26 19.9558 26 12.5L 24 12.5ZM 12.5 24C 6.14873 24 1 18.8513 1 12.5L -1 12.5C -1 19.9558 5.04416 26 12.5 26L 12.5 24ZM 1 12.5C 1 6.14873 6.14873 1 12.5 1L 12.5 -1C 5.04416 -1 -1 5.04416 -1 12.5L 1 12.5ZM 12.5 1C 18.8513 1 24 6.14873 24 12.5L 26 12.5C 26 5.04416 19.9558 -1 12.5 -1L 12.5 1Z"/>
<path id="path6_fill" d="M 68.795 38C 68.9909 23.1877 69.4746 14.9075 71 0.182113C 49.6593 -0.502412 38.2738 0.643688 18.9627 5.31787C 7.03671 11.5971 3.4666 18.2047 0 32.8642C 27.0832 33.8142 42.1294 35.0192 68.795 38Z"/>
<path id="path7_stroke" d="M 71 0.182113L 71.4973 0.233634L 71.5527 -0.300417L 71.016 -0.31763L 71 0.182113ZM 68.795 38L 68.7395 38.4969L 69.2877 38.5582L 69.295 38.0066L 68.795 38ZM 0 32.8642L -0.48658 32.7492L -0.626901 33.3425L -0.0175267 33.3639L 0 32.8642ZM 18.9627 5.31787L 18.8451 4.83191L 18.7847 4.84652L 18.7298 4.87545L 18.9627 5.31787ZM 70.5027 0.130593C 68.9762 14.8671 68.4912 23.1698 68.2951 37.9934L 69.295 38.0066C 69.4905 23.2056 69.9729 14.9478 71.4973 0.233634L 70.5027 0.130593ZM 68.8506 37.5031C 42.1771 34.5214 27.1119 33.315 0.0175267 32.3645L -0.0175267 33.3639C 27.0544 34.3133 42.0816 35.5169 68.7395 38.4969L 68.8506 37.5031ZM 0.48658 32.9793C 2.2144 25.6707 3.94241 20.4358 6.72644 16.2238C 9.49823 12.0127 13.2776 8.87317 19.1957 5.7603L 18.7298 4.87545C 12.7219 8.04177 8.75315 11.3457 5.89173 15.6731C 3.04255 19.9996 1.25221 25.3983 -0.48658 32.7492L 0.48658 32.9793ZM 19.0804 5.80384C 38.3579 1.13657 49.6763 -0.00270315 70.984 0.681856L 71.016 -0.31763C 49.6422 -1.00212 38.1898 0.150803 18.8451 4.83191L 19.0804 5.80384Z"/>
<path id="path8_fill" d="M 2.1293 38.9249L 0 0.264117C 20.4241 -0.689901 31.1581 0.858922 49.3999 6.24733L 83.4687 22.8162L 126.481 55.0336C 128.97 57.2997 129.764 59.0146 130.739 62.3975C 132.017 65.6193 128.184 67 128.184 67L 2.1293 38.9249Z"/>
<path id="path9_stroke" d="M 0 0.264117L -0.0233298 -0.235339L -0.52697 -0.211813L -0.499243 0.291614L 0 0.264117ZM 2.1293 38.9249L 1.63006 38.9524L 1.65089 39.3306L 2.02061 39.4129L 2.1293 38.9249ZM 128.184 67L 128.075 67.488L 128.217 67.5196L 128.354 67.4704L 128.184 67ZM 130.739 62.3975L 130.259 62.5361L 130.266 62.5593L 130.274 62.5818L 130.739 62.3975ZM 126.481 55.0336L 126.817 54.6638L 126.8 54.6477L 126.78 54.6334L 126.481 55.0336ZM 83.4687 22.8162L 83.7685 22.4161L 83.7303 22.3875L 83.6874 22.3666L 83.4687 22.8162ZM 49.3999 6.24733L 49.6185 5.79769L 49.5813 5.77956L 49.5415 5.76782L 49.3999 6.24733ZM -0.499243 0.291614L 1.63006 38.9524L 2.62855 38.8974L 0.499243 0.23662L -0.499243 0.291614ZM 2.02061 39.4129L 128.075 67.488L 128.293 66.512L 2.238 38.4369L 2.02061 39.4129ZM 128.184 67C 128.354 67.4704 128.354 67.4703 128.354 67.4702C 128.354 67.4702 128.354 67.4701 128.355 67.4701C 128.355 67.47 128.355 67.4698 128.356 67.4696C 128.357 67.4693 128.358 67.4688 128.36 67.4682C 128.362 67.4674 128.366 67.4657 128.371 67.464C 128.379 67.4608 128.393 67.4555 128.41 67.4491C 128.44 67.4373 128.488 67.4178 128.544 67.3936C 128.652 67.3471 128.815 67.2721 128.997 67.1757C 129.352 66.9876 129.846 66.6775 130.283 66.2718C 130.712 65.8675 131.144 65.2864 131.357 64.6232C 131.572 63.9244 131.562 63.117 131.204 62.2132L 130.274 62.5818C 130.555 63.2889 130.545 63.8623 130.401 64.3285C 130.254 64.8303 129.968 65.1984 129.599 65.542C 129.237 65.8842 128.853 66.1207 128.529 66.2921C 128.372 66.3756 128.245 66.4335 128.149 66.4751C 128.103 66.495 128.069 66.5083 128.044 66.5183C 128.033 66.5228 128.025 66.5256 128.019 66.5279C 128.017 66.5288 128.016 66.5293 128.014 66.5297C 128.014 66.5299 128.014 66.53 128.014 66.5299C 128.014 66.5299 128.014 66.5298 128.014 66.5298C 128.014 66.5298 128.014 66.5297 128.014 66.5297C 128.014 66.5297 128.015 66.5296 128.184 67ZM 131.22 62.259C 130.232 58.8399 129.373 57.004 126.817 54.6638L 126.144 55.4033C 128.567 57.5954 129.295 59.1894 130.259 62.5361L 131.22 62.259ZM 126.78 54.6334L 83.7685 22.4161L 83.169 23.2164L 126.181 55.4338L 126.78 54.6334ZM 83.6874 22.3666L 49.6185 5.79769L 49.1812 6.69698L 83.25 23.2659L 83.6874 22.3666ZM 49.5415 5.76782C 31.2649 0.370462 20.4483 -1.18932 -0.0233298 -0.235339L 0.0233298 0.763572C 20.4 -0.190485 31.0513 1.34738 49.2582 6.72685L 49.5415 5.76782Z"/>
<path id="path10_fill" d="M 3.73047 7.98828L 3.81836 9.16992C 4.56706 8.25195 5.57943 7.79297 6.85547 7.79297C 8.21615 7.79297 9.15039 8.33008 9.6582 9.4043C 10.4004 8.33008 11.4583 7.79297 12.832 7.79297C 13.9779 7.79297 14.8307 8.12826 15.3906 8.79883C 15.9505 9.46289 16.2305 10.4655 16.2305 11.8066L 16.2305 18.5547L 13.3984 18.5547L 13.3984 11.8164C 13.3984 11.2174 13.2812 10.7812 13.0469 10.5078C 12.8125 10.2279 12.3991 10.0879 11.8066 10.0879C 10.9603 10.0879 10.3743 10.4915 10.0488 11.2988L 10.0586 18.5547L 7.23633 18.5547L 7.23633 11.8262C 7.23633 11.2142 7.11589 10.7715 6.875 10.498C 6.63411 10.2246 6.22396 10.0879 5.64453 10.0879C 4.84375 10.0879 4.26432 10.4199 3.90625 11.084L 3.90625 18.5547L 1.08398 18.5547L 1.08398 7.98828L 3.73047 7.98828ZM 17.9688 13.1738C 17.9688 12.1257 18.1706 11.1914 18.5742 10.3711C 18.9779 9.55078 19.5573 8.91602 20.3125 8.4668C 21.0742 8.01758 21.9564 7.79297 22.959 7.79297C 24.3848 7.79297 25.5469 8.22917 26.4453 9.10156C 27.3503 9.97396 27.8548 11.1589 27.959 12.6562L 27.9785 13.3789C 27.9785 15 27.526 16.3021 26.6211 17.2852C 25.7161 18.2617 24.502 18.75 22.9785 18.75C 21.4551 18.75 20.2376 18.2617 19.3262 17.2852C 18.4212 16.3086 17.9688 14.9805 17.9688 13.3008L 17.9688 13.1738ZM 20.791 13.3789C 20.791 14.3815 20.9798 15.1497 21.3574 15.6836C 21.735 16.2109 22.2754 16.4746 22.9785 16.4746C 23.6621 16.4746 24.196 16.2142 24.5801 15.6934C 24.9642 15.166 25.1562 14.3262 25.1562 13.1738C 25.1562 12.1908 24.9642 11.429 24.5801 10.8887C 24.196 10.3483 23.6556 10.0781 22.959 10.0781C 22.2689 10.0781 21.735 10.3483 21.3574 10.8887C 20.9798 11.4225 20.791 12.2526 20.791 13.3789ZM 29.2773 13.1738C 29.2773 12.1257 29.4792 11.1914 29.8828 10.3711C 30.2865 9.55078 30.8659 8.91602 31.6211 8.4668C 32.3828 8.01758 33.265 7.79297 34.2676 7.79297C 35.6934 7.79297 36.8555 8.22917 37.7539 9.10156C 38.6589 9.97396 39.1634 11.1589 39.2676 12.6562L 39.2871 13.3789C 39.2871 15 38.8346 16.3021 37.9297 17.2852C 37.0247 18.2617 35.8105 18.75 34.2871 18.75C 32.7637 18.75 31.5462 18.2617 30.6348 17.2852C 29.7298 16.3086 29.2773 14.9805 29.2773 13.3008L 29.2773 13.1738ZM 32.0996 13.3789C 32.0996 14.3815 32.2884 15.1497 32.666 15.6836C 33.0436 16.2109 33.584 16.4746 34.2871 16.4746C 34.9707 16.4746 35.5046 16.2142 35.8887 15.6934C 36.2728 15.166 36.4648 14.3262 36.4648 13.1738C 36.4648 12.1908 36.2728 11.429 35.8887 10.8887C 35.5046 10.3483 34.9642 10.0781 34.2676 10.0781C 33.5775 10.0781 33.0436 10.3483 32.666 10.8887C 32.2884 11.4225 32.0996 12.2526 32.0996 13.3789ZM 44.8438 15.1074L 46.8066 7.98828L 49.7559 7.98828L 46.1914 18.5547L 43.4961 18.5547L 39.9316 7.98828L 42.8809 7.98828L 44.8438 15.1074ZM 55.752 18.75C 54.2025 18.75 52.9395 18.2747 51.9629 17.3242C 50.9928 16.3737 50.5078 15.1074 50.5078 13.5254L 50.5078 13.252C 50.5078 12.1908 50.7129 11.2435 51.123 10.4102C 51.5332 9.57031 52.1126 8.92578 52.8613 8.47656C 53.6165 8.02083 54.4759 7.79297 55.4395 7.79297C 56.8848 7.79297 58.0208 8.2487 58.8477 9.16016C 59.681 10.0716 60.0977 11.3639 60.0977 13.0371L 60.0977 14.1895L 53.3691 14.1895C 53.4603 14.8796 53.7337 15.4329 54.1895 15.8496C 54.6517 16.2663 55.2344 16.4746 55.9375 16.4746C 57.0247 16.4746 57.8743 16.0807 58.4863 15.293L 59.873 16.8457C 59.4499 17.4447 58.877 17.9134 58.1543 18.252C 57.4316 18.584 56.6309 18.75 55.752 18.75ZM 55.4297 10.0781C 54.8698 10.0781 54.4141 10.2669 54.0625 10.6445C 53.7174 11.0221 53.4961 11.5625 53.3984 12.2656L 57.3242 12.2656L 57.3242 12.041C 57.3112 11.416 57.1419 10.9342 56.8164 10.5957C 56.4909 10.2507 56.0286 10.0781 55.4297 10.0781Z"/>
<path id="path11_fill" d="M 6.80664 15.6348C 6.80664 15.2897 6.63411 15.0195 6.28906 14.8242C 5.95052 14.6224 5.40365 14.4434 4.64844 14.2871C 2.13542 13.7598 0.878906 12.6921 0.878906 11.084C 0.878906 10.1465 1.26628 9.36523 2.04102 8.74023C 2.82227 8.10872 3.84115 7.79297 5.09766 7.79297C 6.4388 7.79297 7.50977 8.10872 8.31055 8.74023C 9.11784 9.37174 9.52148 10.1921 9.52148 11.2012L 6.69922 11.2012C 6.69922 10.7975 6.56901 10.4655 6.30859 10.2051C 6.04818 9.93815 5.64128 9.80469 5.08789 9.80469C 4.61263 9.80469 4.24479 9.91211 3.98438 10.127C 3.72396 10.3418 3.59375 10.6152 3.59375 10.9473C 3.59375 11.2598 3.74023 11.5137 4.0332 11.709C 4.33268 11.8978 4.83398 12.0638 5.53711 12.207C 6.24023 12.3438 6.83268 12.5 7.31445 12.6758C 8.80534 13.2227 9.55078 14.1699 9.55078 15.5176C 9.55078 16.4811 9.13737 17.2624 8.31055 17.8613C 7.48372 18.4538 6.41602 18.75 5.10742 18.75C 4.22201 18.75 3.43424 18.5938 2.74414 18.2812C 2.06055 17.9622 1.52344 17.5293 1.13281 16.9824C 0.742188 16.429 0.546875 15.8333 0.546875 15.1953L 3.22266 15.1953C 3.2487 15.6966 3.43424 16.0807 3.7793 16.3477C 4.12435 16.6146 4.58659 16.748 5.16602 16.748C 5.70638 16.748 6.11328 16.6471 6.38672 16.4453C 6.66667 16.237 6.80664 15.9668 6.80664 15.6348Z"/>
<path id="path12_stroke" d="M 38.5 6L 39.8707 5.39079L 39.5387 4.64377L 38.731 4.51789L 38.5 6ZM 64.5 64.5L 63.1293 65.1092L 63.5252 66L 64.5 66L 64.5 64.5ZM -0.230978 1.48211L 38.269 7.48211L 38.731 4.51789L 0.230978 -1.48211L -0.230978 1.48211ZM 37.1293 6.60921L 63.1293 65.1092L 65.8707 63.8908L 39.8707 5.39079L 37.1293 6.60921ZM 64.5 66L 91 66L 91 63L 64.5 63L 64.5 66Z"/>
<path id="path13_fill" d="M 0 0L 32 0L 32 13L 0 13L 0 0Z"/>
<path id="path14_fill" d="M 10 6C 10 9.31371 7.76142 12 5 12C 2.23858 12 0 9.31371 0 6C 0 2.68629 2.23858 0 5 0C 7.76142 0 10 2.68629 10 6Z"/>
<path id="path15_fill" d="M 0 0L 12 0L 12 15L 0 15L 0 0Z"/>
</defs>
</svg>
